<svg width="18" height="18" viewBox="0 0 18 18" fill="none" xmlns="http://www.w3.org/2000/svg">
<path d="M-7.15256e-07 9C-7.15256e-07 9.62132 0.503679 10.125 1.125 10.125L13.6913 10.125L8.20406 15.6122C7.76448 16.0518 7.76448 16.7645 8.20406 17.2041V17.2041C8.64365 17.6436 9.35635 17.6436 9.79594 17.2041L17.625 9.375C17.8321 9.16789 17.8321 8.83211 17.625 8.625L9.79594 0.795936C9.35635 0.356352 8.64365 0.356353 8.20406 0.795937V0.795937C7.76448 1.23552 7.76448 1.94823 8.20406 2.38781L13.6913 7.875L1.125 7.875C0.503679 7.875 -7.15256e-07 8.37868 -7.15256e-07 9V9Z" fill="white"/>
</svg>
